<?xml version="1.0" encoding="UTF-8"?>
<svg version="1.1" xmlns="http://www.w3.org/2000/svg" width="40" height="40">
<path d="M0 0 C13.2 0 26.4 0 40 0 C40 13.2 40 26.4 40 40 C26.8 40 13.6 40 0 40 C0 26.8 0 13.6 0 0 Z " fill="#F7F8F7" transform="translate(0,0)"/>
<path d="M0 0 C3.28548455 3.74180185 3.63118797 7.72283578 4.25 12.5625 C3.59 12.5625 2.93 12.5625 2.25 12.5625 C3.24 14.0475 3.24 14.0475 4.25 15.5625 C4.25 16.5525 4.25 17.5425 4.25 18.5625 C3.59 18.8925 2.93 19.2225 2.25 19.5625 C1.56270746 21.68096285 1.56270746 21.68096285 1.125 24.125 C0.95742188 24.95128906 0.78984375 25.77757813 0.6171875 26.62890625 C0.49601562 27.26699219 0.37484375 27.90507813 0.25 28.5625 C1.219375 28.68625 2.18875 28.81 3.1875 28.9375 C4.7034375 29.246875 4.7034375 29.246875 6.25 29.5625 C6.58 30.2225 6.91 30.8825 7.25 31.5625 C4.28 30.9025 1.31 30.2425 -1.75 29.5625 C-1.75 28.5725 -1.75 27.5825 -1.75 26.5625 C-2.74 27.2225 -3.73 27.8825 -4.75 28.5625 C-10.81382979 28.03058511 -10.81382979 28.03058511 -13.75 26.5625 C-13.75 27.5525 -13.75 28.5425 -13.75 29.5625 C-15.4 29.5625 -17.05 29.5625 -18.75 29.5625 C-17.43 28.9025 -16.11 28.2425 -14.75 27.5625 C-15.17683632 26.28804546 -15.61697202 25.01804118 -16.0625 23.75 C-16.30613281 23.04230469 -16.54976562 22.33460937 -16.80078125 21.60546875 C-17.81881696 19.41438778 -19.05563398 18.24729333 -20.75 16.5625 C-20.5625 14.375 -20.5625 14.375 -19.75 11.5625 C-19.54310547 10.59183594 -19.54310547 10.59183594 -19.33203125 9.6015625 C-17.75580186 2.35360173 -17.75580186 2.35360173 -14.75 -0.4375 C-9.26700842 -2.9962294 -5.32701255 -2.78457474 0 0 Z " fill="#6F7D8E" transform="translate(27.75,4.4375)"/>
<path d="M0 0 C0.61488281 0.08378906 1.22976563 0.16757812 1.86328125 0.25390625 C2.67152344 0.35574219 3.47976562 0.45757813 4.3125 0.5625 C5.11300781 0.66691406 5.91351562 0.77132813 6.73828125 0.87890625 C9.16817116 1.14755178 9.16817116 1.14755178 12 0 C12 0.99 12 1.98 12 3 C12.86625 3.12375 13.7325 3.2475 14.625 3.375 C17.89513853 3.98058121 20.87256899 4.88306035 24 6 C23.01 6.33 22.02 6.66 21 7 C21 7.66 21 8.32 21 9 C10.44 9 -0.12 9 -11 9 C-11.33 8.01 -11.66 7.02 -12 6 C-7.89542386 3.01485372 -5.02254631 2.7045561 0 3 C0 2.01 0 1.02 0 0 Z " fill="#D8DCDF" transform="translate(14,31)"/>
<path d="M0 0 C2.41832747 2.48742254 2.90374756 3.84497074 3.1875 7.25 C-0.7539002 8.28038433 -3.64865152 8.12693282 -7.625 7.3125 C-8.60082031 7.11785156 -9.57664062 6.92320313 -10.58203125 6.72265625 C-11.31808594 6.56667969 -12.05414063 6.41070312 -12.8125 6.25 C-12.8125 6.91 -12.8125 7.57 -12.8125 8.25 C-14.4625 8.58 -16.1125 8.91 -17.8125 9.25 C-18.02868085 6.07934761 -18.12467164 3.87434327 -16.6875 1 C-11.57874452 -3.76817178 -5.69902495 -3.54605997 0 0 Z " fill="#223956" transform="translate(27.8125,4.75)"/>
<path d="M0 0 C0.66 0 1.32 0 2 0 C2 0.66 2 1.32 2 2 C2.66 2 3.32 2 4 2 C4.33 1.34 4.66 0.68 5 0 C8 1 8 1 10 4 C13.08365871 4.2502157 13.08365871 4.2502157 16 4 C15.66602151 7.00580638 15.15988669 8.77861843 13.375 11.25 C10.18275433 13.60218102 7.94652964 14 4 14 C0.90789084 11.96571766 0.15290331 10.56456605 -0.8125 7 C-0.98025304 4.3159514 -0.87066586 2.51525694 0 0 Z " fill="#CED2D6" transform="translate(13,17)"/>
<path d="M0 0 C5.41499441 -0.11521265 10.62915894 0.31798844 16 1 C16.33 2.65 16.66 4.3 17 6 C16.34 6 15.68 6 15 6 C15.99 7.485 15.99 7.485 17 9 C17 9.99 17 10.98 17 12 C16.01 12.33 15.02 12.66 14 13 C13.67 12.34 13.34 11.68 13 11 C11.35 11 9.7 11 8 11 C7.67 9.35 7.34 7.7 7 6 C6.401875 5.896875 5.80375 5.79375 5.1875 5.6875 C2.68741714 4.90175967 1.62464918 4.03081147 0 2 C0 1.34 0 0.68 0 0 Z " fill="#6E7C8E" transform="translate(15,11)"/>
<path d="M0 0 C1.9451 2.91765 2.45276317 4.62537285 3 8 C9.12975747 9.25490541 9.12975747 9.25490541 15 8 C16.29660434 5.50965614 16.29660434 5.50965614 17 3 C18.15941038 6.47823115 17.70820884 8.45895578 17 12 C17.969375 12.12375 18.93875 12.2475 19.9375 12.375 C20.948125 12.58125 21.95875 12.7875 23 13 C23.33 13.66 23.66 14.32 24 15 C21.03 14.34 18.06 13.68 15 13 C15 12.01 15 11.02 15 10 C14.01 10.66 13.02 11.32 12 12 C5.93617021 11.46808511 5.93617021 11.46808511 3 10 C3 10.99 3 11.98 3 13 C1.35 13 -0.3 13 -2 13 C-0.68 12.34 0.64 11.68 2 11 C1.77183594 10.37351562 1.54367187 9.74703125 1.30859375 9.1015625 C1.02113281 8.28429688 0.73367187 7.46703125 0.4375 6.625 C0.14746094 5.81289063 -0.14257812 5.00078125 -0.44140625 4.1640625 C-1 2 -1 2 0 0 Z " fill="#3E5169" transform="translate(11,21)"/>
<path d="M0 0 C3.64939813 0.91234953 5.71592813 1.72321202 8.4375 4.375 C10 7 10 7 9.75 9.3125 C9.5025 9.869375 9.255 10.42625 9 11 C2.84765625 10.4140625 2.84765625 10.4140625 1 10 C-0.60725635 6.78548731 -0.05748185 3.56387464 0 0 Z " fill="#2C415C" transform="translate(21,2)"/>
<path d="M0 0 C2.31 0.66 4.62 1.32 7 2 C7 3.65 7 5.3 7 7 C8.65 6.01 10.3 5.02 12 4 C12.33 5.32 12.66 6.64 13 8 C9.75173326 10.16551116 8.76905843 10.55156953 5 10 C1.92290527 7.77765381 1.10940349 6.47408179 0.25 2.75 C0.1675 1.8425 0.085 0.935 0 0 Z " fill="#F0F1F2" transform="translate(12,21)"/>
<path d="M0 0 C0.61488281 0.08378906 1.22976563 0.16757812 1.86328125 0.25390625 C3.07564453 0.40666016 3.07564453 0.40666016 4.3125 0.5625 C5.11300781 0.66691406 5.91351563 0.77132813 6.73828125 0.87890625 C9.16817116 1.14755178 9.16817116 1.14755178 12 0 C12 0.99 12 1.98 12 3 C9.75487738 4.12256131 8.48543351 4.13413762 6 4.125 C4.948125 4.12886719 4.948125 4.12886719 3.875 4.1328125 C2 4 2 4 0 3 C0 2.01 0 1.02 0 0 Z " fill="#EFF0F0" transform="translate(14,31)"/>
<path d="M0 0 C3 1 3 1 4 3 C4.99 3.33 5.98 3.66 7 4 C7.6875 6.0625 7.6875 6.0625 8 8 C7.34 7.67 6.68 7.34 6 7 C6 6.34 6 5.68 6 5 C4.02 5.33 2.04 5.66 0 6 C0 5.34 0 4.68 0 4 C-0.99 3.67 -1.98 3.34 -3 3 C-2.01 2.01 -1.02 1.02 0 0 Z " fill="#344660" transform="translate(15,13)"/>
<path d="M0 0 C0.04241723 2.33294775 0.04092937 4.66702567 0 7 C-1 8 -1 8 -3.5625 8.0625 C-4.366875 8.041875 -5.17125 8.02125 -6 8 C-5.57004265 4.99029853 -3.66008917 0 0 0 Z " fill="#2B405A" transform="translate(20,2)"/>
<path d="M0 0 C0.66 0 1.32 0 2 0 C2 0.66 2 1.32 2 2 C2.66 2 3.32 2 4 2 C4.33 1.34 4.66 0.68 5 0 C5.66 0.33 6.32 0.66 7 1 C6.34 2.32 5.68 3.64 5 5 C3.35 5 1.7 5 0 5 C0 3.35 0 1.7 0 0 Z " fill="#B9C0C8" transform="translate(13,17)"/>
<path d="M0 0 C0.66 1.32 1.32 2.64 2 4 C-1 6 -1 6 -3.1875 5.625 C-3.785625 5.41875 -4.38375 5.2125 -5 5 C-5 4.34 -5 3.68 -5 3 C-2.5 1.375 -2.5 1.375 0 0 Z " fill="#FAFBFA" transform="translate(23,25)"/>
<path d="M0 0 C2 1.3125 2 1.3125 4 3 C4 3.99 4 4.98 4 6 C3.01 6.33 2.02 6.66 1 7 C0.67 6.34 0.34 5.68 0 5 C-1.65 5 -3.3 5 -5 5 C-3.68 4.67 -2.36 4.34 -1 4 C-0.67 2.68 -0.34 1.36 0 0 Z " fill="#2D415B" transform="translate(28,17)"/>
<path d="M0 0 C1.2065625 0.0309375 1.2065625 0.0309375 2.4375 0.0625 C2.4375 1.0525 2.4375 2.0425 2.4375 3.0625 C1.1175 3.3925 -0.2025 3.7225 -1.5625 4.0625 C-2.2225 3.0725 -2.8825 2.0825 -3.5625 1.0625 C-2.5625 0.0625 -2.5625 0.0625 0 0 Z " fill="#F3F4F4" transform="translate(20.5625,12.9375)"/>
<path d="M0 0 C0 0.66 0 1.32 0 2 C-3.22791555 4.1519437 -4.28400809 4.20086443 -8 4 C-8 3.34 -8 2.68 -8 2 C-2.25 0 -2.25 0 0 0 Z " fill="#5B6A7F" transform="translate(26,29)"/>
</svg>
